<svg xmlns="http://www.w3.org/2000/svg" viewBox="0 0 400 400">
  <rect width="400" height="400" fill="#f5f0e8"/>

  <!-- Keyboard plate/base -->
  <rect x="50" y="60" width="300" height="260" rx="18" fill="#ebe3d8" stroke="#b8a890" stroke-width="1.5"/>
  <rect x="58" y="68" width="284" height="244" rx="14" fill="#f0ebe2" stroke="#cdbfad" stroke-width="0.8"/>

  <!-- Key 1 - top left (warm olive) -->
  <rect x="78" y="88" width="118" height="98" rx="12" fill="#e8e4d6" stroke="#b8a890" stroke-width="1.2"/>
  <rect x="84" y="92" width="106" height="82" rx="9" fill="#d5d2b8" stroke="#a8a580" stroke-width="0.8"/>
  <!-- keycap legend -->
  <text x="137" y="142" text-anchor="middle" font-family="monospace" font-size="22" fill="#7a7860" font-weight="bold">Q</text>

  <!-- Key 2 - top right (muted teal) -->
  <rect x="204" y="88" width="118" height="98" rx="12" fill="#e2e6e4" stroke="#b8a890" stroke-width="1.2"/>
  <rect x="210" y="92" width="106" height="82" rx="9" fill="#c2d2cc" stroke="#8aaa9a" stroke-width="0.8"/>
  <!-- keycap legend -->
  <text x="263" y="142" text-anchor="middle" font-family="monospace" font-size="22" fill="#5a7a6e" font-weight="bold">W</text>

  <!-- Key 3 - bottom left (warm terracotta) -->
  <rect x="78" y="200" width="118" height="98" rx="12" fill="#e8e2dc" stroke="#b8a890" stroke-width="1.2"/>
  <rect x="84" y="204" width="106" height="82" rx="9" fill="#d8c4b6" stroke="#b8988a" stroke-width="0.8"/>
  <!-- keycap legend -->
  <text x="137" y="254" text-anchor="middle" font-family="monospace" font-size="22" fill="#8a6858" font-weight="bold">A</text>

  <!-- Key 4 - bottom right (dusty purple) -->
  <rect x="204" y="200" width="118" height="98" rx="12" fill="#e4e0e6" stroke="#b8a890" stroke-width="1.2"/>
  <rect x="210" y="204" width="106" height="82" rx="9" fill="#cec4d4" stroke="#a090aa" stroke-width="0.8"/>
  <!-- keycap legend -->
  <text x="263" y="254" text-anchor="middle" font-family="monospace" font-size="22" fill="#6a5878" font-weight="bold">S</text>

  <!-- Corner screws -->
  <g fill="none" stroke="#b8a890" stroke-width="1">
    <circle cx="68" cy="78" r="4"/>
    <circle cx="332" cy="78" r="4"/>
    <circle cx="68" cy="302" r="4"/>
    <circle cx="332" cy="302" r="4"/>
  </g>
  <g fill="#c5b8a5">
    <circle cx="68" cy="78" r="1.5"/>
    <circle cx="332" cy="78" r="1.5"/>
    <circle cx="68" cy="302" r="1.5"/>
    <circle cx="332" cy="302" r="1.5"/>
  </g>

  <!-- Label -->
  <text x="200" y="370" text-anchor="middle" font-family="Georgia, serif" font-size="13" fill="#8a7a65" letter-spacing="0.18em">MECHKEYS</text>
</svg>
